<svg width="18" height="18" viewBox="0 0 18 18" fill="none" xmlns="http://www.w3.org/2000/svg">
      <g clip-path="url(#clip0_958_49488)">
      <path d="M12.0938 11.8125L13.5 15.1875L14.9062 11.8125" stroke="#3E4555" stroke-width="1.2" stroke-linecap="round" stroke-linejoin="round"/>
      <path d="M5.625 14.8008C5.35588 15.0468 5.00524 15.1846 4.64062 15.1875C3.78281 15.1875 3.09375 14.4352 3.09375 13.5C3.09375 12.5648 3.78281 11.8125 4.64062 11.8125C5.00524 11.8154 5.35588 11.9532 5.625 12.1992" stroke="#3E4555" stroke-width="1.2" stroke-linecap="round" stroke-linejoin="round"/>
      <path d="M7.875 14.9062C8.17974 15.1336 8.54951 15.2568 8.92969 15.2578C9.5625 15.2578 10.125 15.0469 10.125 14.3438C10.125 13.2188 7.875 13.7109 7.875 12.6562C7.875 12.0938 8.29688 11.7422 8.92969 11.7422C9.30986 11.7432 9.67963 11.8664 9.98438 12.0938" stroke="#3E4555" stroke-width="1.2" stroke-linecap="round" stroke-linejoin="round"/>
      <path d="M3.375 9V2.8125C3.375 2.66332 3.43426 2.52024 3.53975 2.41475C3.64524 2.30926 3.78832 2.25 3.9375 2.25H10.6875L14.625 6.1875V9" stroke="#3E4555" stroke-width="1.2" stroke-linecap="round" stroke-linejoin="round"/>
      <path d="M10.6875 2.25V6.1875H14.625" stroke="#3E4555" stroke-width="1.2" stroke-linecap="round" stroke-linejoin="round"/>
      </g>
      <defs>
      <clipPath id="clip0_958_49488">
      <rect width="18" height="18" fill="white"/>
      </clipPath>
      </defs>
</svg>